<svg width="100" height="100" viewBox="0 0 100 100" fill="none" xmlns="http://www.w3.org/2000/svg">
<rect width="100" height="100" fill="white"/>
<path d="M24.6875 23.75C26.2402 23.75 27.5 25.0098 27.5 26.5625V73.4375C27.5 74.9961 26.2402 76.25 24.6875 76.25H22.8125C21.2598 76.25 20 74.9961 20 73.4375V26.5625C20 25.0098 21.2598 23.75 22.8125 23.75H24.6875ZM35 25.625V74.375C35 75.4062 34.1562 76.25 33.125 76.25C32.0938 76.25 31.25 75.4062 31.25 74.375V25.625C31.25 24.5891 32.0938 23.75 33.125 23.75C34.1562 23.75 35 24.5891 35 25.625ZM43.4375 23.75C44.9961 23.75 46.25 25.0098 46.25 26.5625V73.4375C46.25 74.9961 44.9961 76.25 43.4375 76.25H41.5625C40.0039 76.25 38.75 74.9961 38.75 73.4375V26.5625C38.75 25.0098 40.0039 23.75 41.5625 23.75H43.4375ZM54.6875 23.75C56.2461 23.75 57.5 25.0098 57.5 26.5625V73.4375C57.5 74.9961 56.2461 76.25 54.6875 76.25H52.8125C51.2539 76.25 50 74.9961 50 73.4375V26.5625C50 25.0098 51.2539 23.75 52.8125 23.75H54.6875ZM72.5 26.5625C72.5 25.0098 73.7539 23.75 75.3125 23.75H77.1875C78.7461 23.75 80 25.0098 80 26.5625V73.4375C80 74.9961 78.7461 76.25 77.1875 76.25H75.3125C73.7539 76.25 72.5 74.9961 72.5 73.4375V26.5625ZM65 25.625C65 24.5891 65.8438 23.75 66.875 23.75C67.9062 23.75 68.75 24.5891 68.75 25.625V74.375C68.75 75.4062 67.9062 76.25 66.875 76.25C65.8438 76.25 65 75.4062 65 74.375V25.625Z" fill="#102535"/>
<rect x="7" y="93" width="20" height="2" rx="1" transform="rotate(-90 7 93)" fill="#102535"/>
<rect x="27" y="93" width="20" height="2" rx="1" transform="rotate(180 27 93)" fill="#102535"/>
<rect x="93" y="7" width="20" height="2" rx="0.999999" transform="rotate(90 93 7)" fill="#102535"/>
<rect x="73" y="7" width="20" height="2" rx="1" fill="#102535"/>
<rect x="93" y="94" width="20" height="2" rx="0.999999" transform="rotate(-180 93 94)" fill="#102535"/>
<rect x="93" y="74" width="20" height="2" rx="1" transform="rotate(90 93 74)" fill="#102535"/>
<rect x="7" y="7" width="20" height="2" rx="1" fill="#102535"/>
<rect x="7" y="27" width="20" height="2" rx="1" transform="rotate(-90 7 27)" fill="#102535"/>
</svg>
